SplineFontDB: 3.2
FontName: FBKINGDOM
FullName: FBKINGDOM
FamilyName: FBKINGDOM
Weight: Regular
Copyright: Copyright (c) 2024, kbinani
UComments: "2024-11-7: Created with FontForge (http://fontforge.org)"
Version: 001.000
ItalicAngle: 0
UnderlinePosition: -100
UnderlineWidth: 50
Ascent: 800
Descent: 200
InvalidEm: 0
LayerCount: 2
Layer: 0 0 "+gMyXYgAA" 1
Layer: 1 0 "+Uk2XYgAA" 0
XUID: [1021 716 1131550121 30788]
StyleMap: 0x0000
FSType: 0
OS2Version: 0
OS2_WeightWidthSlopeOnly: 0
OS2_UseTypoMetrics: 1
CreationTime: 1730956758
ModificationTime: 1730986927
PfmFamily: 17
TTFWeight: 400
TTFWidth: 5
LineGap: 90
VLineGap: 90
OS2TypoAscent: 0
OS2TypoAOffset: 1
OS2TypoDescent: 0
OS2TypoDOffset: 1
OS2TypoLinegap: 90
OS2WinAscent: 0
OS2WinAOffset: 1
OS2WinDescent: 0
OS2WinDOffset: 1
HheadAscent: 0
HheadAOffset: 1
HheadDescent: 0
HheadDOffset: 1
OS2Vendor: 'PfEd'
MarkAttachClasses: 1
DEI: 91125
LangName: 1033
Encoding: UnicodeBmp
UnicodeInterp: none
NameList: AGL For New Fonts
DisplaySize: -48
AntiAlias: 1
FitToEm: 0
WinInfo: 12240 24 10
BeginPrivate: 0
EndPrivate
BeginChars: 65536 64

StartChar: uni3042
Encoding: 12354 12354 0
Width: 635
Flags: W
HStem: -175.615 21.168<100.423 527.121>
VStem: 527.121 21.168<-154.447 678.896>
LayerCount: 2
Fore
SplineSet
548.2890625 -175.615234375 m 1024
527.12109375 678.895507812 m 1
 100.422851562 -154.447265625 l 1
 527.12109375 -154.447265625 l 1
 527.12109375 678.895507812 l 1
548.2890625 756.881835938 m 1
 548.2890625 -175.615234375 l 1
 67 -175.615234375 l 1
 548.2890625 756.881835938 l 1
EndSplineSet
Validated: 524289
EndChar

StartChar: uni3044
Encoding: 12356 12356 1
Width: 455
Flags: HM
LayerCount: 2
Fore
SplineSet
157.333984375 -175.615234375 m 1
 157.333984375 438.661132812 l 1
 278.640625 438.661132812 l 1
 278.640625 -175.615234375 l 1
 157.333984375 -175.615234375 l 1
217.986328125 781.931640625 m 0
 301.318359375 781.931640625 368.974609375 714.276367188 368.974609375 630.943359375 c 0
 368.973632812 547.612304688 301.318359375 479.95703125 217.986328125 479.95703125 c 0
 134.655273438 479.958007812 67.0009765625 547.612304688 67 630.943359375 c 0
 67 714.275390625 134.654296875 781.930664062 217.986328125 781.931640625 c 0
217.986328125 752.25 m 0
 151.03515625 752.25 96.6796875 697.89453125 96.6796875 630.943359375 c 0
 96.6796875 563.993164062 151.03515625 509.63671875 217.986328125 509.63671875 c 0
 284.9375 509.63671875 339.29296875 563.993164062 339.29296875 630.943359375 c 0
 339.29296875 697.89453125 284.9375 752.25 217.986328125 752.25 c 0
EndSplineSet
Validated: 524289
EndChar

StartChar: uni3046
Encoding: 12358 12358 2
Width: 600
HStem: -25.916 37.4238<94.1016 486.412> 592.23 37.4238<94.1016 486.412>
VStem: 67 27.1016<11.5078 592.23> 486.412 27.0996<11.5078 592.23>
LayerCount: 2
Fore
SplineSet
67 629.654296875 m 1
 513.51171875 629.654296875 l 1
 513.51171875 -25.916015625 l 1
 67 -25.916015625 l 1
 67 629.654296875 l 1
94.1015625 592.23046875 m 1
 94.1015625 11.5078125 l 1
 486.412109375 11.5078125 l 1
 486.412109375 592.23046875 l 1
 94.1015625 592.23046875 l 1
EndSplineSet
Validated: 524289
EndChar

StartChar: uni3048
Encoding: 12360 12360 3
Width: 635
HStem: 763.347 21.167<100.423 527.121>
VStem: 527.121 21.168<-69.9961 763.347>
LayerCount: 2
Fore
SplineSet
548.2890625 784.513671875 m 1024
527.12109375 -69.99609375 m 1
 527.12109375 763.346679688 l 1
 100.422851562 763.346679688 l 1
 527.12109375 -69.99609375 l 1
548.2890625 -147.982421875 m 1
 67 784.513671875 l 1
 548.2890625 784.513671875 l 1
 548.2890625 -147.982421875 l 1
EndSplineSet
Validated: 524289
EndChar

StartChar: uni304A
Encoding: 12362 12362 4
Width: 600
HStem: 79.9043 33.5527<212.87 367.639> 492.861 33.5527<212.87 367.638>
VStem: 67 33.5527<225.776 380.544> 479.957 33.5527<225.776 380.544>
LayerCount: 2
Fore
SplineSet
290.25390625 526.4140625 m 0
 413.471679688 526.4140625 513.508789062 426.377929688 513.509765625 303.16015625 c 0
 513.509765625 179.942382812 413.471679688 79.904296875 290.25390625 79.904296875 c 0
 167.036132812 79.9052734375 67 179.942382812 67 303.16015625 c 0
 67.0009765625 426.376953125 167.037109375 526.413085938 290.25390625 526.4140625 c 0
290.25390625 492.861328125 m 0
 185.555664062 492.860351562 100.553710938 407.858398438 100.552734375 303.16015625 c 0
 100.552734375 198.4609375 185.5546875 113.458007812 290.25390625 113.45703125 c 0
 394.954101562 113.45703125 479.95703125 198.459960938 479.95703125 303.16015625 c 0
 479.956054688 407.859375 394.953125 492.861328125 290.25390625 492.861328125 c 0
EndSplineSet
Validated: 524289
EndChar

StartChar: uni304B
Encoding: 12363 12363 5
Width: 994
HStem: -175.615 21.168<459.163 885.86>
VStem: 67 131.631<-119.582 784.514> 885.86 21.168<-154.447 678.896>
LayerCount: 2
Fore
SplineSet
907.028320312 -175.615234375 m 1024
885.860351562 678.895507812 m 1
 459.163085938 -154.447265625 l 1
 885.860351562 -154.447265625 l 1
 885.860351562 678.895507812 l 1
907.028320312 756.881835938 m 1
 907.028320312 -175.615234375 l 1
 425.740234375 -175.615234375 l 1
 907.028320312 756.881835938 l 1
67 784.513671875 m 1
 198.630859375 784.513671875 l 1
 198.630859375 -119.58203125 l 1
 620.216796875 784.513671875 l 1
 713.1328125 784.513671875 l 1
 265.41796875 -175.615234375 l 1
 198.630859375 -175.615234375 l 1
 172.501953125 -175.615234375 l 1
 67 -175.615234375 l 1
 67 784.513671875 l 1
EndSplineSet
Validated: 524289
EndChar

StartChar: uni304D
Encoding: 12365 12365 6
Width: 1106
HStem: 479.957 29.6797<811.453 924.595> 752.25 29.6816<811.452 924.595>
VStem: 67 131.631<-119.582 784.514> 717.037 29.6797<574.373 687.515> 807.371 121.307<-175.615 438.661> 989.33 29.6816<574.373 687.515>
LayerCount: 2
Fore
SplineSet
807.37109375 -175.615234375 m 1
 807.37109375 438.661132812 l 1
 928.677734375 438.661132812 l 1
 928.677734375 -175.615234375 l 1
 807.37109375 -175.615234375 l 1
868.0234375 781.931640625 m 0
 951.35546875 781.931640625 1019.01171875 714.276367188 1019.01171875 630.943359375 c 0
 1019.01074219 547.612304688 951.35546875 479.95703125 868.0234375 479.95703125 c 0
 784.692382812 479.958007812 717.038085938 547.612304688 717.037109375 630.943359375 c 0
 717.037109375 714.275390625 784.69140625 781.930664062 868.0234375 781.931640625 c 0
868.0234375 752.25 m 0
 801.072265625 752.25 746.716796875 697.89453125 746.716796875 630.943359375 c 0
 746.716796875 563.993164062 801.072265625 509.63671875 868.0234375 509.63671875 c 0
 934.974609375 509.63671875 989.330078125 563.993164062 989.330078125 630.943359375 c 0
 989.330078125 697.89453125 934.974609375 752.25 868.0234375 752.25 c 0
67 784.513671875 m 1
 198.630859375 784.513671875 l 1
 198.630859375 -119.58203125 l 1
 620.216796875 784.513671875 l 1
 713.1328125 784.513671875 l 1
 265.41796875 -175.615234375 l 1
 198.630859375 -175.615234375 l 1
 172.501953125 -175.615234375 l 1
 67 -175.615234375 l 1
 67 784.513671875 l 1
EndSplineSet
Validated: 524289
EndChar

StartChar: uni304F
Encoding: 12367 12367 7
Width: 1203
HStem: -67.916 37.4238<697.031 1089.34> 550.23 37.4238<697.031 1089.34>
VStem: 67 131.631<-119.582 784.514> 669.93 27.1016<-30.4922 550.23> 1089.34 27.0996<-30.4922 550.23>
LayerCount: 2
Fore
SplineSet
669.9296875 587.654296875 m 1
 1116.44140625 587.654296875 l 1
 1116.44140625 -67.916015625 l 1
 669.9296875 -67.916015625 l 1
 669.9296875 587.654296875 l 1
697.03125 550.23046875 m 1
 697.03125 -30.4921875 l 1
 1089.34179688 -30.4921875 l 1
 1089.34179688 550.23046875 l 1
 697.03125 550.23046875 l 1
67 784.513671875 m 1
 198.630859375 784.513671875 l 1
 198.630859375 -119.58203125 l 1
 620.216796875 784.513671875 l 1
 713.1328125 784.513671875 l 1
 265.41796875 -175.615234375 l 1
 198.630859375 -175.615234375 l 1
 172.501953125 -175.615234375 l 1
 67 -175.615234375 l 1
 67 784.513671875 l 1
EndSplineSet
Validated: 524289
EndChar

StartChar: uni3051
Encoding: 12369 12369 8
Width: 1290
HStem: 763.347 21.167<755.92 1182.62>
VStem: 67 131.631<-119.582 784.514> 1182.62 21.167<-69.9961 763.347>
LayerCount: 2
Fore
SplineSet
1203.78515625 784.513671875 m 1024
1182.61816406 -69.99609375 m 1
 1182.61816406 763.346679688 l 1
 755.919921875 763.346679688 l 1
 1182.61816406 -69.99609375 l 1
1203.78515625 -147.982421875 m 1
 722.497070312 784.513671875 l 1
 1203.78515625 784.513671875 l 1
 1203.78515625 -147.982421875 l 1
67 784.513671875 m 1
 198.630859375 784.513671875 l 1
 198.630859375 -119.58203125 l 1
 620.216796875 784.513671875 l 1
 713.1328125 784.513671875 l 1
 265.41796875 -175.615234375 l 1
 198.630859375 -175.615234375 l 1
 172.501953125 -175.615234375 l 1
 67 -175.615234375 l 1
 67 784.513671875 l 1
EndSplineSet
Validated: 524289
EndChar

StartChar: uni3053
Encoding: 12371 12371 9
Width: 1053
HStem: -16.0957 33.5527<666.315 821.084> 396.861 33.5527<666.316 821.084>
VStem: 67 131.631<-119.582 784.514> 520.445 33.5527<129.776 284.544> 933.402 33.5527<129.776 284.544>
LayerCount: 2
Fore
SplineSet
743.69921875 430.4140625 m 0
 866.916992188 430.4140625 966.954101562 330.377929688 966.955078125 207.16015625 c 0
 966.955078125 83.9423828125 866.916992188 -16.095703125 743.69921875 -16.095703125 c 0
 620.481445312 -16.0947265625 520.4453125 83.9423828125 520.4453125 207.16015625 c 0
 520.446289062 330.376953125 620.482421875 430.413085938 743.69921875 430.4140625 c 0
743.69921875 396.861328125 m 0
 639.000976562 396.860351562 553.999023438 311.858398438 553.998046875 207.16015625 c 0
 553.998046875 102.4609375 639 17.4580078125 743.69921875 17.45703125 c 0
 848.399414062 17.45703125 933.40234375 102.459960938 933.40234375 207.16015625 c 0
 933.401367188 311.859375 848.3984375 396.861328125 743.69921875 396.861328125 c 0
67 784.513671875 m 1
 198.630859375 784.513671875 l 1
 198.630859375 -119.58203125 l 1
 620.216796875 784.513671875 l 1
 713.1328125 784.513671875 l 1
 265.41796875 -175.615234375 l 1
 198.630859375 -175.615234375 l 1
 172.501953125 -175.615234375 l 1
 67 -175.615234375 l 1
 67 784.513671875 l 1
EndSplineSet
Validated: 524289
EndChar

StartChar: uni3055
Encoding: 12373 12373 10
Width: 1194
HStem: -175.615 28.5439<79.3496 499.07> -175.615 21.168<659.92 1086.62> 755.97 28.5439<165.41 590.615>
VStem: 1086.62 21.168<-154.447 678.896>
LayerCount: 2
Fore
SplineSet
1107.78515625 -175.615234375 m 1024x70
1086.6171875 678.895507812 m 1
 659.919921875 -154.447265625 l 1
 1086.6171875 -154.447265625 l 1
 1086.6171875 678.895507812 l 1
1107.78515625 756.881835938 m 1
 1107.78515625 -175.615234375 l 1
 626.497070312 -175.615234375 l 1
 1107.78515625 756.881835938 l 1
67 784.513671875 m 1
 131.19921875 784.513671875 l 1
 152.171875 784.513671875 l 1
 590.615234375 784.513671875 l 1
 590.615234375 755.969726562 l 1
 165.41015625 755.969726562 l 1
 597.48046875 -175.615234375 l 1
 538.767578125 -175.615234375 l 1
 512.30859375 -175.615234375 l 1x70
 79.349609375 -175.615234375 l 1
 79.349609375 -147.071289062 l 1
 499.0703125 -147.071289062 l 1xb0
 67 784.513671875 l 1
EndSplineSet
Validated: 524289
EndChar

StartChar: uni3057
Encoding: 12375 12375 11
Width: 976
HStem: -175.615 28.5439<79.3496 499.07> 479.957 29.6797<681.453 794.595> 755.97 28.5439<165.41 590.615 690.222 785.825>
VStem: 587.037 29.6797<574.373 687.515> 677.371 121.307<-175.615 438.661> 859.33 29.6816<574.373 687.515>
LayerCount: 2
Fore
SplineSet
677.37109375 -175.615234375 m 1
 677.37109375 438.661132812 l 1
 798.677734375 438.661132812 l 1
 798.677734375 -175.615234375 l 1
 677.37109375 -175.615234375 l 1
738.0234375 781.931640625 m 0
 821.35546875 781.931640625 889.01171875 714.276367188 889.01171875 630.943359375 c 0
 889.010742188 547.612304688 821.35546875 479.95703125 738.0234375 479.95703125 c 0
 654.692382812 479.958007812 587.038085938 547.612304688 587.037109375 630.943359375 c 0
 587.037109375 714.275390625 654.69140625 781.930664062 738.0234375 781.931640625 c 0
738.0234375 752.25 m 0
 671.072265625 752.25 616.716796875 697.89453125 616.716796875 630.943359375 c 0
 616.716796875 563.993164062 671.072265625 509.63671875 738.0234375 509.63671875 c 0
 804.974609375 509.63671875 859.330078125 563.993164062 859.330078125 630.943359375 c 0
 859.330078125 697.89453125 804.974609375 752.25 738.0234375 752.25 c 0
67 784.513671875 m 1
 131.19921875 784.513671875 l 1
 152.171875 784.513671875 l 1
 590.615234375 784.513671875 l 1
 590.615234375 755.969726562 l 1
 165.41015625 755.969726562 l 1
 597.48046875 -175.615234375 l 1
 538.767578125 -175.615234375 l 1
 512.30859375 -175.615234375 l 1
 79.349609375 -175.615234375 l 1
 79.349609375 -147.071289062 l 1
 499.0703125 -147.071289062 l 1
 67 784.513671875 l 1
EndSplineSet
Validated: 524289
EndChar

StartChar: uni3059
Encoding: 12377 12377 12
Width: 1077
HStem: -175.615 28.5439<79.3496 499.07> 46.084 37.4238<571.031 963.342> 664.23 37.4238<571.031 963.342> 755.97 28.5439<165.41 590.615>
VStem: 543.93 27.1016<83.5078 664.23> 963.342 27.0996<83.5078 664.23>
LayerCount: 2
Fore
SplineSet
543.9296875 701.654296875 m 1
 990.44140625 701.654296875 l 1
 990.44140625 46.083984375 l 1
 543.9296875 46.083984375 l 1
 543.9296875 701.654296875 l 1
571.03125 664.23046875 m 1
 571.03125 83.5078125 l 1
 963.341796875 83.5078125 l 1
 963.341796875 664.23046875 l 1
 571.03125 664.23046875 l 1
67 784.513671875 m 1
 131.19921875 784.513671875 l 1
 152.171875 784.513671875 l 1
 590.615234375 784.513671875 l 1
 590.615234375 755.969726562 l 1
 165.41015625 755.969726562 l 1
 597.48046875 -175.615234375 l 1
 538.767578125 -175.615234375 l 1
 512.30859375 -175.615234375 l 1
 79.349609375 -175.615234375 l 1
 79.349609375 -147.071289062 l 1
 499.0703125 -147.071289062 l 1
 67 784.513671875 l 1
EndSplineSet
Validated: 524289
EndChar

StartChar: uni305B
Encoding: 12379 12379 13
Width: 1196
HStem: -175.615 28.5439<79.3496 499.07> 755.97 28.5439<165.41 590.615> 763.347 21.167<661.919 1088.62>
VStem: 1088.62 21.168<-69.9961 763.347>
LayerCount: 2
Fore
SplineSet
1109.78515625 784.513671875 m 1024xb0
1088.6171875 -69.99609375 m 1
 1088.6171875 763.346679688 l 1
 661.918945312 763.346679688 l 1
 1088.6171875 -69.99609375 l 1
1109.78515625 -147.982421875 m 1
 628.49609375 784.513671875 l 1
 1109.78515625 784.513671875 l 1
 1109.78515625 -147.982421875 l 1
67 784.513671875 m 1
 131.19921875 784.513671875 l 1
 152.171875 784.513671875 l 1xb0
 590.615234375 784.513671875 l 1
 590.615234375 755.969726562 l 1
 165.41015625 755.969726562 l 1xd0
 597.48046875 -175.615234375 l 1
 538.767578125 -175.615234375 l 1
 512.30859375 -175.615234375 l 1
 79.349609375 -175.615234375 l 1
 79.349609375 -147.071289062 l 1
 499.0703125 -147.071289062 l 1
 67 784.513671875 l 1
EndSplineSet
Validated: 524289
EndChar

StartChar: uni305D
Encoding: 12381 12381 14
Width: 999
HStem: -175.615 28.5439<79.3496 499.07> 161.904 33.5527<612.315 767.084> 574.861 33.5527<612.316 767.084> 755.97 28.5439<165.41 590.615>
VStem: 466.445 33.5527<307.776 462.544> 879.402 33.5527<307.776 462.544>
LayerCount: 2
Fore
SplineSet
689.69921875 608.4140625 m 0
 812.916992188 608.4140625 912.954101562 508.377929688 912.955078125 385.16015625 c 0
 912.955078125 261.942382812 812.916992188 161.904296875 689.69921875 161.904296875 c 0
 566.481445312 161.905273438 466.4453125 261.942382812 466.4453125 385.16015625 c 0
 466.446289062 508.376953125 566.482421875 608.413085938 689.69921875 608.4140625 c 0
689.69921875 574.861328125 m 0
 585.000976562 574.860351562 499.999023438 489.858398438 499.998046875 385.16015625 c 0
 499.998046875 280.4609375 585 195.458007812 689.69921875 195.45703125 c 0
 794.399414062 195.45703125 879.40234375 280.459960938 879.40234375 385.16015625 c 0
 879.401367188 489.859375 794.3984375 574.861328125 689.69921875 574.861328125 c 0
67 784.513671875 m 1
 131.19921875 784.513671875 l 1
 152.171875 784.513671875 l 1
 590.615234375 784.513671875 l 1
 590.615234375 755.969726562 l 1
 165.41015625 755.969726562 l 1
 597.48046875 -175.615234375 l 1
 538.767578125 -175.615234375 l 1
 512.30859375 -175.615234375 l 1
 79.349609375 -175.615234375 l 1
 79.349609375 -147.071289062 l 1
 499.0703125 -147.071289062 l 1
 67 784.513671875 l 1
EndSplineSet
Validated: 524289
EndChar

StartChar: uni305F
Encoding: 12383 12383 15
Width: 980
HStem: -175.615 21.168<445.92 872.617> 245.087 116.145<269.423 537.846>
VStem: 67 118.726<-175.615 784.514> 872.617 21.168<-154.447 678.896>
LayerCount: 2
Fore
SplineSet
893.78515625 -175.615234375 m 1024
872.6171875 678.895507812 m 1
 445.919921875 -154.447265625 l 1
 872.6171875 -154.447265625 l 1
 872.6171875 678.895507812 l 1
893.78515625 756.881835938 m 1
 893.78515625 -175.615234375 l 1
 412.497070312 -175.615234375 l 1
 893.78515625 756.881835938 l 1
67 -175.615234375 m 1
 67 784.513671875 l 1
 185.725585938 784.513671875 l 1
 185.725585938 -175.615234375 l 1
 67 -175.615234375 l 1
269.422851562 245.086914062 m 1
 269.422851562 361.231445312 l 1
 537.845703125 361.231445312 l 1
 537.845703125 245.086914062 l 1
 269.422851562 245.086914062 l 1
EndSplineSet
Validated: 524289
EndChar

StartChar: uni3061
Encoding: 12385 12385 16
Width: 930
HStem: 245.087 116.145<273.423 541.846> 479.957 29.6797<635.453 748.595> 752.25 29.6816<635.452 748.595>
VStem: 67 118.726<-175.615 784.514> 541.037 29.6797<574.373 687.515> 631.371 121.307<-175.615 438.661> 813.33 29.6816<574.373 687.515>
LayerCount: 2
Fore
SplineSet
631.37109375 -175.615234375 m 1
 631.37109375 438.661132812 l 1
 752.677734375 438.661132812 l 1
 752.677734375 -175.615234375 l 1
 631.37109375 -175.615234375 l 1
692.0234375 781.931640625 m 0
 775.35546875 781.931640625 843.01171875 714.276367188 843.01171875 630.943359375 c 0
 843.010742188 547.612304688 775.35546875 479.95703125 692.0234375 479.95703125 c 0
 608.692382812 479.958007812 541.038085938 547.612304688 541.037109375 630.943359375 c 0
 541.037109375 714.275390625 608.69140625 781.930664062 692.0234375 781.931640625 c 0
692.0234375 752.25 m 0
 625.072265625 752.25 570.716796875 697.89453125 570.716796875 630.943359375 c 0
 570.716796875 563.993164062 625.072265625 509.63671875 692.0234375 509.63671875 c 0
 758.974609375 509.63671875 813.330078125 563.993164062 813.330078125 630.943359375 c 0
 813.330078125 697.89453125 758.974609375 752.25 692.0234375 752.25 c 0
67 -175.615234375 m 1
 67 784.513671875 l 1
 185.725585938 784.513671875 l 1
 185.725585938 -175.615234375 l 1
 67 -175.615234375 l 1
273.422851562 245.086914062 m 1
 273.422851562 361.231445312 l 1
 541.845703125 361.231445312 l 1
 541.845703125 245.086914062 l 1
 273.422851562 245.086914062 l 1
EndSplineSet
Validated: 524289
EndChar

StartChar: uni3064
Encoding: 12388 12388 17
Width: 1113
HStem: -25.916 37.4238<607.031 999.342> 245.087 116.145<249.423 517.846> 592.23 37.4238<607.031 999.342>
VStem: 67 118.726<-175.615 784.514> 579.93 27.1016<11.5078 592.23> 999.342 27.0996<11.5078 592.23>
LayerCount: 2
Fore
SplineSet
579.9296875 629.654296875 m 1
 1026.44140625 629.654296875 l 1
 1026.44140625 -25.916015625 l 1
 579.9296875 -25.916015625 l 1
 579.9296875 629.654296875 l 1
607.03125 592.23046875 m 1
 607.03125 11.5078125 l 1
 999.341796875 11.5078125 l 1
 999.341796875 592.23046875 l 1
 607.03125 592.23046875 l 1
67 -175.615234375 m 1
 67 784.513671875 l 1
 185.725585938 784.513671875 l 1
 185.725585938 -175.615234375 l 1
 67 -175.615234375 l 1
249.422851562 245.086914062 m 1
 249.422851562 361.231445312 l 1
 517.845703125 361.231445312 l 1
 517.845703125 245.086914062 l 1
 249.422851562 245.086914062 l 1
EndSplineSet
Validated: 524289
EndChar

StartChar: uni3066
Encoding: 12390 12390 18
Width: 980
HStem: 245.087 116.145<275.423 543.846> 763.347 21.167<445.92 872.617>
VStem: 67 118.726<-175.615 784.514> 872.617 21.168<-69.9961 763.347>
LayerCount: 2
Fore
SplineSet
893.78515625 784.513671875 m 1024
872.6171875 -69.99609375 m 1
 872.6171875 763.346679688 l 1
 445.919921875 763.346679688 l 1
 872.6171875 -69.99609375 l 1
893.78515625 -147.982421875 m 1
 412.497070312 784.513671875 l 1
 893.78515625 784.513671875 l 1
 893.78515625 -147.982421875 l 1
67 -175.615234375 m 1
 67 784.513671875 l 1
 185.725585938 784.513671875 l 1
 185.725585938 -175.615234375 l 1
 67 -175.615234375 l 1
275.422851562 245.086914062 m 1
 275.422851562 361.231445312 l 1
 543.845703125 361.231445312 l 1
 543.845703125 245.086914062 l 1
 275.422851562 245.086914062 l 1
EndSplineSet
Validated: 524289
EndChar

StartChar: uni3068
Encoding: 12392 12392 19
Width: 1119
HStem: 79.9043 33.5527<732.315 887.084> 245.087 116.145<257.423 525.846> 492.861 33.5527<732.316 887.084>
VStem: 67 118.726<-175.615 784.514> 586.445 33.5527<225.776 380.544> 999.402 33.5527<225.776 380.544>
CounterMasks: 1 e0
LayerCount: 2
Fore
SplineSet
809.69921875 526.4140625 m 0
 932.916992188 526.4140625 1032.95410156 426.377929688 1032.95507812 303.16015625 c 0
 1032.95507812 179.942382812 932.916992188 79.904296875 809.69921875 79.904296875 c 0
 686.481445312 79.9052734375 586.4453125 179.942382812 586.4453125 303.16015625 c 0
 586.446289062 426.376953125 686.482421875 526.413085938 809.69921875 526.4140625 c 0
809.69921875 492.861328125 m 0
 705.000976562 492.860351562 619.999023438 407.858398438 619.998046875 303.16015625 c 0
 619.998046875 198.4609375 705 113.458007812 809.69921875 113.45703125 c 0
 914.399414062 113.45703125 999.40234375 198.459960938 999.40234375 303.16015625 c 0
 999.401367188 407.859375 914.3984375 492.861328125 809.69921875 492.861328125 c 0
67 -175.615234375 m 1
 67 784.513671875 l 1
 185.725585938 784.513671875 l 1
 185.725585938 -175.615234375 l 1
 67 -175.615234375 l 1
257.422851562 245.086914062 m 1
 257.422851562 361.231445312 l 1
 525.845703125 361.231445312 l 1
 525.845703125 245.086914062 l 1
 257.422851562 245.086914062 l 1
EndSplineSet
Validated: 524289
EndChar

StartChar: uni306A
Encoding: 12394 12394 20
Width: 1310
HStem: -175.615 21.168<775.92 1202.62>
VStem: 67 131.631<-175.615 728.48> 1202.62 21.168<-154.447 678.896>
LayerCount: 2
Fore
SplineSet
1223.78515625 -175.615234375 m 1024
1202.6171875 678.895507812 m 1
 775.919921875 -154.447265625 l 1
 1202.6171875 -154.447265625 l 1
 1202.6171875 678.895507812 l 1
1223.78515625 756.881835938 m 1
 1223.78515625 -175.615234375 l 1
 742.497070312 -175.615234375 l 1
 1223.78515625 756.881835938 l 1
67 -175.615234375 m 1
 67 784.513671875 l 1
 172.501953125 784.513671875 l 1
 198.630859375 784.513671875 l 1
 265.41796875 784.513671875 l 1
 713.1328125 -175.615234375 l 1
 620.216796875 -175.615234375 l 1
 198.630859375 728.48046875 l 1
 198.630859375 -175.615234375 l 1
 67 -175.615234375 l 1
EndSplineSet
Validated: 524289
EndChar

StartChar: uni306B
Encoding: 12395 12395 21
Width: 1032
HStem: 479.957 29.6797<737.453 850.595> 752.25 29.6816<737.452 850.595>
VStem: 67 131.631<-175.615 728.48> 643.037 29.6797<574.373 687.515> 733.371 121.307<-175.615 438.661> 915.33 29.6816<574.373 687.515>
LayerCount: 2
Fore
SplineSet
733.37109375 -175.615234375 m 1
 733.37109375 438.661132812 l 1
 854.677734375 438.661132812 l 1
 854.677734375 -175.615234375 l 1
 733.37109375 -175.615234375 l 1
794.0234375 781.931640625 m 0
 877.35546875 781.931640625 945.01171875 714.276367188 945.01171875 630.943359375 c 0
 945.010742188 547.612304688 877.35546875 479.95703125 794.0234375 479.95703125 c 0
 710.692382812 479.958007812 643.038085938 547.612304688 643.037109375 630.943359375 c 0
 643.037109375 714.275390625 710.69140625 781.930664062 794.0234375 781.931640625 c 0
794.0234375 752.25 m 0
 727.072265625 752.25 672.716796875 697.89453125 672.716796875 630.943359375 c 0
 672.716796875 563.993164062 727.072265625 509.63671875 794.0234375 509.63671875 c 0
 860.974609375 509.63671875 915.330078125 563.993164062 915.330078125 630.943359375 c 0
 915.330078125 697.89453125 860.974609375 752.25 794.0234375 752.25 c 0
67 -175.615234375 m 1
 67 784.513671875 l 1
 172.501953125 784.513671875 l 1
 198.630859375 784.513671875 l 1
 265.41796875 784.513671875 l 1
 713.1328125 -175.615234375 l 1
 620.216796875 -175.615234375 l 1
 198.630859375 728.48046875 l 1
 198.630859375 -175.615234375 l 1
 67 -175.615234375 l 1
EndSplineSet
Validated: 524289
EndChar

StartChar: uni306C
Encoding: 12396 12396 22
Width: 1185
HStem: 46.084 37.4238<679.031 1071.34> 664.23 37.4238<679.031 1071.34>
VStem: 67 131.631<-175.615 728.48> 651.93 27.1016<83.5078 664.23> 1071.34 27.0996<83.5078 664.23>
LayerCount: 2
Fore
SplineSet
651.9296875 701.654296875 m 1
 1098.44140625 701.654296875 l 1
 1098.44140625 46.083984375 l 1
 651.9296875 46.083984375 l 1
 651.9296875 701.654296875 l 1
679.03125 664.23046875 m 1
 679.03125 83.5078125 l 1
 1071.34179688 83.5078125 l 1
 1071.34179688 664.23046875 l 1
 679.03125 664.23046875 l 1
67 -175.615234375 m 1
 67 784.513671875 l 1
 172.501953125 784.513671875 l 1
 198.630859375 784.513671875 l 1
 265.41796875 784.513671875 l 1
 713.1328125 -175.615234375 l 1
 620.216796875 -175.615234375 l 1
 198.630859375 728.48046875 l 1
 198.630859375 -175.615234375 l 1
 67 -175.615234375 l 1
EndSplineSet
Validated: 524289
EndChar

StartChar: uni306D
Encoding: 12397 12397 23
Width: 898
HStem: 763.347 21.167<363.92 790.617>
VStem: 67 131.631<-175.615 728.48> 790.617 21.168<-69.9961 763.347>
LayerCount: 2
Fore
SplineSet
811.78515625 784.513671875 m 1024
790.6171875 -69.99609375 m 1
 790.6171875 763.346679688 l 1
 363.919921875 763.346679688 l 1
 790.6171875 -69.99609375 l 1
811.78515625 -147.982421875 m 1
 330.497070312 784.513671875 l 1
 811.78515625 784.513671875 l 1
 811.78515625 -147.982421875 l 1
67 -175.615234375 m 1
 67 784.513671875 l 1
 172.501953125 784.513671875 l 1
 198.630859375 784.513671875 l 1
 265.41796875 784.513671875 l 1
 713.1328125 -175.615234375 l 1
 620.216796875 -175.615234375 l 1
 198.630859375 728.48046875 l 1
 198.630859375 -175.615234375 l 1
 67 -175.615234375 l 1
EndSplineSet
Validated: 524289
EndChar

StartChar: uni306E
Encoding: 12398 12398 24
Width: 1045
HStem: 199.904 33.5527<658.315 813.084> 612.861 33.5527<658.316 813.084>
VStem: 67 131.631<-175.615 728.48> 512.445 33.5527<345.776 500.544> 925.402 33.5527<345.776 500.544>
LayerCount: 2
Fore
SplineSet
735.69921875 646.4140625 m 0
 858.916992188 646.4140625 958.954101562 546.377929688 958.955078125 423.16015625 c 0
 958.955078125 299.942382812 858.916992188 199.904296875 735.69921875 199.904296875 c 0
 612.481445312 199.905273438 512.4453125 299.942382812 512.4453125 423.16015625 c 0
 512.446289062 546.376953125 612.482421875 646.413085938 735.69921875 646.4140625 c 0
735.69921875 612.861328125 m 0
 631.000976562 612.860351562 545.999023438 527.858398438 545.998046875 423.16015625 c 0
 545.998046875 318.4609375 631 233.458007812 735.69921875 233.45703125 c 0
 840.399414062 233.45703125 925.40234375 318.459960938 925.40234375 423.16015625 c 0
 925.401367188 527.859375 840.3984375 612.861328125 735.69921875 612.861328125 c 0
67 -175.615234375 m 1
 67 784.513671875 l 1
 172.501953125 784.513671875 l 1
 198.630859375 784.513671875 l 1
 265.41796875 784.513671875 l 1
 713.1328125 -175.615234375 l 1
 620.216796875 -175.615234375 l 1
 198.630859375 728.48046875 l 1
 198.630859375 -175.615234375 l 1
 67 -175.615234375 l 1
EndSplineSet
Validated: 524289
EndChar

StartChar: uni306F
Encoding: 12399 12399 25
Width: 1286
HStem: -175.615 28.3906<185.727 686.566> -175.615 21.168<751.92 1178.62>
VStem: 67 118.727<-147.225 784.514> 1178.62 21.168<-154.447 678.896>
LayerCount: 2
Fore
SplineSet
1199.78515625 -175.615234375 m 1024x70
1178.6171875 678.895507812 m 1
 751.919921875 -154.447265625 l 1
 1178.6171875 -154.447265625 l 1
 1178.6171875 678.895507812 l 1
1199.78515625 756.881835938 m 1
 1199.78515625 -175.615234375 l 1
 718.497070312 -175.615234375 l 1
 1199.78515625 756.881835938 l 1
67 784.513671875 m 1
 185.7265625 784.513671875 l 1
 185.7265625 -147.224609375 l 1
 686.56640625 -147.224609375 l 1
 686.56640625 -175.615234375 l 1
 185.7265625 -175.615234375 l 1xb0
 117.40625 -175.615234375 l 1
 67 -175.615234375 l 1
 67 784.513671875 l 1
EndSplineSet
Validated: 524289
EndChar

StartChar: uni3072
Encoding: 12402 12402 26
Width: 1026
HStem: -175.615 28.3906<185.727 686.566> 479.957 29.6797<731.453 844.595> 752.25 29.6816<731.452 844.595>
VStem: 67 118.727<-147.225 784.514> 637.037 29.6797<574.373 687.515> 727.371 121.307<-175.615 438.661> 909.33 29.6816<574.373 687.515>
LayerCount: 2
Fore
SplineSet
727.37109375 -175.615234375 m 1
 727.37109375 438.661132812 l 1
 848.677734375 438.661132812 l 1
 848.677734375 -175.615234375 l 1
 727.37109375 -175.615234375 l 1
788.0234375 781.931640625 m 0
 871.35546875 781.931640625 939.01171875 714.276367188 939.01171875 630.943359375 c 0
 939.010742188 547.612304688 871.35546875 479.95703125 788.0234375 479.95703125 c 0
 704.692382812 479.958007812 637.038085938 547.612304688 637.037109375 630.943359375 c 0
 637.037109375 714.275390625 704.69140625 781.930664062 788.0234375 781.931640625 c 0
788.0234375 752.25 m 0
 721.072265625 752.25 666.716796875 697.89453125 666.716796875 630.943359375 c 0
 666.716796875 563.993164062 721.072265625 509.63671875 788.0234375 509.63671875 c 0
 854.974609375 509.63671875 909.330078125 563.993164062 909.330078125 630.943359375 c 0
 909.330078125 697.89453125 854.974609375 752.25 788.0234375 752.25 c 0
67 784.513671875 m 1
 185.7265625 784.513671875 l 1
 185.7265625 -147.224609375 l 1
 686.56640625 -147.224609375 l 1
 686.56640625 -175.615234375 l 1
 185.7265625 -175.615234375 l 1
 117.40625 -175.615234375 l 1
 67 -175.615234375 l 1
 67 784.513671875 l 1
EndSplineSet
Validated: 524289
EndChar

StartChar: uni3075
Encoding: 12405 12405 27
Width: 915
HStem: -175.615 28.3906<185.727 686.566> 128.943 37.4238<409.031 801.342> 747.09 37.4238<409.031 801.342>
VStem: 67 118.727<-147.225 784.514> 381.93 27.1016<166.367 747.09> 801.342 27.0996<166.367 747.09>
LayerCount: 2
Fore
SplineSet
381.9296875 784.513671875 m 1
 828.44140625 784.513671875 l 1
 828.44140625 128.943359375 l 1
 381.9296875 128.943359375 l 1
 381.9296875 784.513671875 l 1
409.03125 747.08984375 m 1
 409.03125 166.3671875 l 1
 801.341796875 166.3671875 l 1
 801.341796875 747.08984375 l 1
 409.03125 747.08984375 l 1
67 784.513671875 m 1
 185.7265625 784.513671875 l 1
 185.7265625 -147.224609375 l 1
 686.56640625 -147.224609375 l 1
 686.56640625 -175.615234375 l 1
 185.7265625 -175.615234375 l 1
 117.40625 -175.615234375 l 1
 67 -175.615234375 l 1
 67 784.513671875 l 1
EndSplineSet
Validated: 524289
EndChar

StartChar: uni3078
Encoding: 12408 12408 28
Width: 852
HStem: -175.615 28.3906<185.727 686.566> 763.347 21.167<317.92 744.617>
VStem: 67 118.727<-147.225 784.514> 744.617 21.168<-69.9961 763.347>
LayerCount: 2
Fore
SplineSet
765.78515625 784.513671875 m 1024
744.6171875 -69.99609375 m 1
 744.6171875 763.346679688 l 1
 317.919921875 763.346679688 l 1
 744.6171875 -69.99609375 l 1
765.78515625 -147.982421875 m 1
 284.497070312 784.513671875 l 1
 765.78515625 784.513671875 l 1
 765.78515625 -147.982421875 l 1
67 784.513671875 m 1
 185.7265625 784.513671875 l 1
 185.7265625 -147.224609375 l 1
 686.56640625 -147.224609375 l 1
 686.56640625 -175.615234375 l 1
 185.7265625 -175.615234375 l 1
 117.40625 -175.615234375 l 1
 67 -175.615234375 l 1
 67 784.513671875 l 1
EndSplineSet
Validated: 524289
EndChar

StartChar: uni307B
Encoding: 12411 12411 29
Width: 913
HStem: -175.615 28.3906<185.727 686.566> 79.9043 33.5527<526.315 681.084> 492.861 33.5527<526.316 681.084>
VStem: 67 118.727<-147.225 784.514> 380.445 33.5527<225.776 380.544> 793.402 33.5527<225.776 380.544>
LayerCount: 2
Fore
SplineSet
603.69921875 526.4140625 m 0
 726.916992188 526.4140625 826.954101562 426.377929688 826.955078125 303.16015625 c 0
 826.955078125 179.942382812 726.916992188 79.904296875 603.69921875 79.904296875 c 0
 480.481445312 79.9052734375 380.4453125 179.942382812 380.4453125 303.16015625 c 0
 380.446289062 426.376953125 480.482421875 526.413085938 603.69921875 526.4140625 c 0
603.69921875 492.861328125 m 0
 499.000976562 492.860351562 413.999023438 407.858398438 413.998046875 303.16015625 c 0
 413.998046875 198.4609375 499 113.458007812 603.69921875 113.45703125 c 0
 708.399414062 113.45703125 793.40234375 198.459960938 793.40234375 303.16015625 c 0
 793.401367188 407.859375 708.3984375 492.861328125 603.69921875 492.861328125 c 0
67 784.513671875 m 1
 185.7265625 784.513671875 l 1
 185.7265625 -147.224609375 l 1
 686.56640625 -147.224609375 l 1
 686.56640625 -175.615234375 l 1
 185.7265625 -175.615234375 l 1
 117.40625 -175.615234375 l 1
 67 -175.615234375 l 1
 67 784.513671875 l 1
EndSplineSet
Validated: 524289
EndChar

StartChar: uni307E
Encoding: 12414 12414 30
Width: 1044
HStem: -175.615 21.168<509.92 936.617>
VStem: 67 118.726<-175.615 784.514> 311.95 118.726<-175.615 784.514> 936.617 21.168<-154.447 678.896>
LayerCount: 2
Fore
SplineSet
957.78515625 -175.615234375 m 1024
936.6171875 678.895507812 m 1
 509.919921875 -154.447265625 l 1
 936.6171875 -154.447265625 l 1
 936.6171875 678.895507812 l 1
957.78515625 756.881835938 m 1
 957.78515625 -175.615234375 l 1
 476.497070312 -175.615234375 l 1
 957.78515625 756.881835938 l 1
67 -175.615234375 m 1
 67 784.513671875 l 1
 185.725585938 784.513671875 l 1
 185.725585938 -175.615234375 l 1
 67 -175.615234375 l 1
311.950195312 -175.615234375 m 1
 311.950195312 784.513671875 l 1
 430.67578125 784.513671875 l 1
 430.67578125 -175.615234375 l 1
 311.950195312 -175.615234375 l 1
EndSplineSet
Validated: 524289
EndChar

StartChar: uni307F
Encoding: 12415 12415 31
Width: 996
HStem: 479.957 29.6797<701.453 814.595> 752.25 29.6816<701.452 814.595>
VStem: 67 118.726<-175.615 784.514> 311.95 118.726<-175.615 784.514> 607.037 29.6797<574.373 687.515> 697.371 121.307<-175.615 438.661> 879.33 29.6816<574.373 687.515>
LayerCount: 2
Fore
SplineSet
697.37109375 -175.615234375 m 1
 697.37109375 438.661132812 l 1
 818.677734375 438.661132812 l 1
 818.677734375 -175.615234375 l 1
 697.37109375 -175.615234375 l 1
758.0234375 781.931640625 m 0
 841.35546875 781.931640625 909.01171875 714.276367188 909.01171875 630.943359375 c 0
 909.010742188 547.612304688 841.35546875 479.95703125 758.0234375 479.95703125 c 0
 674.692382812 479.958007812 607.038085938 547.612304688 607.037109375 630.943359375 c 0
 607.037109375 714.275390625 674.69140625 781.930664062 758.0234375 781.931640625 c 0
758.0234375 752.25 m 0
 691.072265625 752.25 636.716796875 697.89453125 636.716796875 630.943359375 c 0
 636.716796875 563.993164062 691.072265625 509.63671875 758.0234375 509.63671875 c 0
 824.974609375 509.63671875 879.330078125 563.993164062 879.330078125 630.943359375 c 0
 879.330078125 697.89453125 824.974609375 752.25 758.0234375 752.25 c 0
67 -175.615234375 m 1
 67 784.513671875 l 1
 185.725585938 784.513671875 l 1
 185.725585938 -175.615234375 l 1
 67 -175.615234375 l 1
311.950195312 -175.615234375 m 1
 311.950195312 784.513671875 l 1
 430.67578125 784.513671875 l 1
 430.67578125 -175.615234375 l 1
 311.950195312 -175.615234375 l 1
EndSplineSet
Validated: 524289
EndChar

StartChar: uni3080
Encoding: 12416 12416 32
Width: 1113
HStem: 128.943 37.4238<607.031 999.342> 747.09 37.4238<607.031 999.342>
VStem: 67 118.726<-175.615 784.514> 311.95 118.726<-175.615 784.514> 579.93 27.1016<166.367 747.09> 999.342 27.0996<166.367 747.09>
LayerCount: 2
Fore
SplineSet
579.9296875 784.513671875 m 1
 1026.44140625 784.513671875 l 1
 1026.44140625 128.943359375 l 1
 579.9296875 128.943359375 l 1
 579.9296875 784.513671875 l 1
607.03125 747.08984375 m 1
 607.03125 166.3671875 l 1
 999.341796875 166.3671875 l 1
 999.341796875 747.08984375 l 1
 607.03125 747.08984375 l 1
67 -175.615234375 m 1
 67 784.513671875 l 1
 185.725585938 784.513671875 l 1
 185.725585938 -175.615234375 l 1
 67 -175.615234375 l 1
311.950195312 -175.615234375 m 1
 311.950195312 784.513671875 l 1
 430.67578125 784.513671875 l 1
 430.67578125 -175.615234375 l 1
 311.950195312 -175.615234375 l 1
EndSplineSet
Validated: 524289
EndChar

StartChar: uni3081
Encoding: 12417 12417 33
Width: 1094
HStem: 763.347 21.167<559.92 986.617>
VStem: 67 118.726<-175.615 784.514> 311.95 118.726<-175.615 784.514> 986.617 21.168<-69.9961 763.347>
LayerCount: 2
Fore
SplineSet
1007.78515625 784.513671875 m 1024
986.6171875 -69.99609375 m 1
 986.6171875 763.346679688 l 1
 559.919921875 763.346679688 l 1
 986.6171875 -69.99609375 l 1
1007.78515625 -147.982421875 m 1
 526.497070312 784.513671875 l 1
 1007.78515625 784.513671875 l 1
 1007.78515625 -147.982421875 l 1
67 -175.615234375 m 1
 67 784.513671875 l 1
 185.725585938 784.513671875 l 1
 185.725585938 -175.615234375 l 1
 67 -175.615234375 l 1
311.950195312 -175.615234375 m 1
 311.950195312 784.513671875 l 1
 430.67578125 784.513671875 l 1
 430.67578125 -175.615234375 l 1
 311.950195312 -175.615234375 l 1
EndSplineSet
Validated: 524289
EndChar

StartChar: uni3082
Encoding: 12418 12418 34
Width: 1081
HStem: 79.9043 33.5527<694.315 849.084> 492.861 33.5527<694.316 849.084>
VStem: 67 118.726<-175.615 784.514> 311.95 118.726<-175.615 784.514> 548.445 33.5527<225.776 380.544> 961.402 33.5527<225.776 380.544>
LayerCount: 2
Fore
SplineSet
771.69921875 526.4140625 m 0
 894.916992188 526.4140625 994.954101562 426.377929688 994.955078125 303.16015625 c 0
 994.955078125 179.942382812 894.916992188 79.904296875 771.69921875 79.904296875 c 0
 648.481445312 79.9052734375 548.4453125 179.942382812 548.4453125 303.16015625 c 0
 548.446289062 426.376953125 648.482421875 526.413085938 771.69921875 526.4140625 c 0
771.69921875 492.861328125 m 0
 667.000976562 492.860351562 581.999023438 407.858398438 581.998046875 303.16015625 c 0
 581.998046875 198.4609375 667 113.458007812 771.69921875 113.45703125 c 0
 876.399414062 113.45703125 961.40234375 198.459960938 961.40234375 303.16015625 c 0
 961.401367188 407.859375 876.3984375 492.861328125 771.69921875 492.861328125 c 0
67 -175.615234375 m 1
 67 784.513671875 l 1
 185.725585938 784.513671875 l 1
 185.725585938 -175.615234375 l 1
 67 -175.615234375 l 1
311.950195312 -175.615234375 m 1
 311.950195312 784.513671875 l 1
 430.67578125 784.513671875 l 1
 430.67578125 -175.615234375 l 1
 311.950195312 -175.615234375 l 1
EndSplineSet
Validated: 524289
EndChar

StartChar: uni3084
Encoding: 12420 12420 35
Width: 1284
HStem: -175.615 21.168<749.92 1176.62> 756.123 28.3906<67 567.84>
VStem: 567.84 118.727<-175.615 756.123> 1176.62 21.168<-154.447 678.896>
LayerCount: 2
Fore
SplineSet
1197.78515625 -175.615234375 m 1024
1176.6171875 678.895507812 m 1
 749.919921875 -154.447265625 l 1
 1176.6171875 -154.447265625 l 1
 1176.6171875 678.895507812 l 1
1197.78515625 756.881835938 m 1
 1197.78515625 -175.615234375 l 1
 716.497070312 -175.615234375 l 1
 1197.78515625 756.881835938 l 1
686.56640625 -175.615234375 m 1
 567.83984375 -175.615234375 l 1
 567.83984375 756.123046875 l 1
 67 756.123046875 l 1
 67 784.513671875 l 1
 567.83984375 784.513671875 l 1
 636.16015625 784.513671875 l 1
 686.56640625 784.513671875 l 1
 686.56640625 -175.615234375 l 1
EndSplineSet
Validated: 524289
EndChar

StartChar: uni3086
Encoding: 12422 12422 36
Width: 1313
HStem: -25.916 37.4238<807.031 1199.34> 592.23 37.4238<807.031 1199.34> 756.123 28.3906<67 567.84>
VStem: 567.84 118.727<-175.615 756.123> 779.93 27.1016<11.5078 592.23> 1199.34 27.0996<11.5078 592.23>
LayerCount: 2
Fore
SplineSet
779.9296875 629.654296875 m 1
 1226.44140625 629.654296875 l 1
 1226.44140625 -25.916015625 l 1
 779.9296875 -25.916015625 l 1
 779.9296875 629.654296875 l 1
807.03125 592.23046875 m 1
 807.03125 11.5078125 l 1
 1199.34179688 11.5078125 l 1
 1199.34179688 592.23046875 l 1
 807.03125 592.23046875 l 1
686.56640625 -175.615234375 m 1
 567.83984375 -175.615234375 l 1
 567.83984375 756.123046875 l 1
 67 756.123046875 l 1
 67 784.513671875 l 1
 567.83984375 784.513671875 l 1
 636.16015625 784.513671875 l 1
 686.56640625 784.513671875 l 1
 686.56640625 -175.615234375 l 1
EndSplineSet
Validated: 524289
EndChar

StartChar: uni3088
Encoding: 12424 12424 37
Width: 1287
HStem: 79.9043 33.5527<900.315 1055.08> 492.861 33.5527<900.316 1055.08> 756.123 28.3906<67 567.84>
VStem: 567.84 118.727<-175.615 756.123> 754.445 33.5527<225.776 380.544> 1167.4 33.5527<225.776 380.544>
LayerCount: 2
Fore
SplineSet
977.69921875 526.4140625 m 0
 1100.91699219 526.4140625 1200.95410156 426.377929688 1200.95507812 303.16015625 c 0
 1200.95507812 179.942382812 1100.91699219 79.904296875 977.69921875 79.904296875 c 0
 854.481445312 79.9052734375 754.4453125 179.942382812 754.4453125 303.16015625 c 0
 754.446289062 426.376953125 854.482421875 526.413085938 977.69921875 526.4140625 c 0
977.69921875 492.861328125 m 0
 873.000976562 492.860351562 787.999023438 407.858398438 787.998046875 303.16015625 c 0
 787.998046875 198.4609375 873 113.458007812 977.69921875 113.45703125 c 0
 1082.39941406 113.45703125 1167.40234375 198.459960938 1167.40234375 303.16015625 c 0
 1167.40136719 407.859375 1082.3984375 492.861328125 977.69921875 492.861328125 c 0
686.56640625 -175.615234375 m 1
 567.83984375 -175.615234375 l 1
 567.83984375 756.123046875 l 1
 67 756.123046875 l 1
 67 784.513671875 l 1
 567.83984375 784.513671875 l 1
 636.16015625 784.513671875 l 1
 686.56640625 784.513671875 l 1
 686.56640625 -175.615234375 l 1
EndSplineSet
Validated: 524289
EndChar

StartChar: uni3089
Encoding: 12425 12425 38
Width: 860
HStem: -175.615 21.168<325.92 752.617> 756.123 28.3906<185.727 686.566>
VStem: 67 118.727<-175.615 756.123> 752.617 21.168<-154.447 678.896>
LayerCount: 2
Fore
SplineSet
773.78515625 -175.615234375 m 1024
752.6171875 678.895507812 m 1
 325.919921875 -154.447265625 l 1
 752.6171875 -154.447265625 l 1
 752.6171875 678.895507812 l 1
773.78515625 756.881835938 m 1
 773.78515625 -175.615234375 l 1
 292.497070312 -175.615234375 l 1
 773.78515625 756.881835938 l 1
67 -175.615234375 m 1
 67 784.513671875 l 1
 117.40625 784.513671875 l 1
 185.7265625 784.513671875 l 1
 686.56640625 784.513671875 l 1
 686.56640625 756.123046875 l 1
 185.7265625 756.123046875 l 1
 185.7265625 -175.615234375 l 1
 67 -175.615234375 l 1
EndSplineSet
Validated: 524289
EndChar

StartChar: uni308A
Encoding: 12426 12426 39
Width: 1072
HStem: 479.957 29.6797<777.453 890.595> 756.123 28.3906<185.727 686.566 786.222 881.825>
VStem: 67 118.727<-175.615 756.123> 683.037 29.6797<574.373 687.515> 773.371 121.307<-175.615 438.661> 955.33 29.6816<574.373 687.515>
LayerCount: 2
Fore
SplineSet
773.37109375 -175.615234375 m 1
 773.37109375 438.661132812 l 1
 894.677734375 438.661132812 l 1
 894.677734375 -175.615234375 l 1
 773.37109375 -175.615234375 l 1
834.0234375 781.931640625 m 0
 917.35546875 781.931640625 985.01171875 714.276367188 985.01171875 630.943359375 c 0
 985.010742188 547.612304688 917.35546875 479.95703125 834.0234375 479.95703125 c 0
 750.692382812 479.958007812 683.038085938 547.612304688 683.037109375 630.943359375 c 0
 683.037109375 714.275390625 750.69140625 781.930664062 834.0234375 781.931640625 c 0
834.0234375 752.25 m 0
 767.072265625 752.25 712.716796875 697.89453125 712.716796875 630.943359375 c 0
 712.716796875 563.993164062 767.072265625 509.63671875 834.0234375 509.63671875 c 0
 900.974609375 509.63671875 955.330078125 563.993164062 955.330078125 630.943359375 c 0
 955.330078125 697.89453125 900.974609375 752.25 834.0234375 752.25 c 0
67 -175.615234375 m 1
 67 784.513671875 l 1
 117.40625 784.513671875 l 1
 185.7265625 784.513671875 l 1
 686.56640625 784.513671875 l 1
 686.56640625 756.123046875 l 1
 185.7265625 756.123046875 l 1
 185.7265625 -175.615234375 l 1
 67 -175.615234375 l 1
EndSplineSet
Validated: 524289
EndChar

StartChar: uni308B
Encoding: 12427 12427 40
Width: 897
HStem: -175.615 37.4238<391.031 783.342> 442.531 37.4238<391.031 783.342> 756.123 28.3906<185.727 686.566>
VStem: 67 118.727<-175.615 756.123> 363.93 27.1016<-138.191 442.531> 783.342 27.0996<-138.191 442.531>
LayerCount: 2
Fore
SplineSet
363.9296875 479.955078125 m 1
 810.44140625 479.955078125 l 1
 810.44140625 -175.615234375 l 1
 363.9296875 -175.615234375 l 1
 363.9296875 479.955078125 l 1
391.03125 442.53125 m 1
 391.03125 -138.19140625 l 1
 783.341796875 -138.19140625 l 1
 783.341796875 442.53125 l 1
 391.03125 442.53125 l 1
67 -175.615234375 m 1
 67 784.513671875 l 1
 117.40625 784.513671875 l 1
 185.7265625 784.513671875 l 1
 686.56640625 784.513671875 l 1
 686.56640625 756.123046875 l 1
 185.7265625 756.123046875 l 1
 185.7265625 -175.615234375 l 1
 67 -175.615234375 l 1
EndSplineSet
Validated: 524289
EndChar

StartChar: uni308C
Encoding: 12428 12428 41
Width: 1286
HStem: 756.123 28.3906<185.727 686.566> 763.347 21.167<751.92 1178.62>
VStem: 67 118.727<-175.615 756.123> 1178.62 21.168<-69.9961 763.347>
LayerCount: 2
Fore
SplineSet
1199.78515625 784.513671875 m 1024x70
1178.6171875 -69.99609375 m 1
 1178.6171875 763.346679688 l 1
 751.919921875 763.346679688 l 1
 1178.6171875 -69.99609375 l 1
1199.78515625 -147.982421875 m 1
 718.497070312 784.513671875 l 1
 1199.78515625 784.513671875 l 1
 1199.78515625 -147.982421875 l 1
67 -175.615234375 m 1
 67 784.513671875 l 1
 117.40625 784.513671875 l 1x70
 185.7265625 784.513671875 l 1
 686.56640625 784.513671875 l 1
 686.56640625 756.123046875 l 1
 185.7265625 756.123046875 l 1xb0
 185.7265625 -175.615234375 l 1
 67 -175.615234375 l 1
EndSplineSet
Validated: 524289
EndChar

StartChar: uni308D
Encoding: 12429 12429 42
Width: 867
HStem: 79.9043 33.5527<480.315 635.084> 492.861 33.5527<480.316 635.084> 756.123 28.3906<185.727 686.566>
VStem: 67 118.727<-175.615 756.123> 334.445 33.5527<225.776 380.544> 747.402 33.5527<225.776 380.544>
LayerCount: 2
Fore
SplineSet
557.69921875 526.4140625 m 0
 680.916992188 526.4140625 780.954101562 426.377929688 780.955078125 303.16015625 c 0
 780.955078125 179.942382812 680.916992188 79.904296875 557.69921875 79.904296875 c 0
 434.481445312 79.9052734375 334.4453125 179.942382812 334.4453125 303.16015625 c 0
 334.446289062 426.376953125 434.482421875 526.413085938 557.69921875 526.4140625 c 0
557.69921875 492.861328125 m 0
 453.000976562 492.860351562 367.999023438 407.858398438 367.998046875 303.16015625 c 0
 367.998046875 198.4609375 453 113.458007812 557.69921875 113.45703125 c 0
 662.399414062 113.45703125 747.40234375 198.459960938 747.40234375 303.16015625 c 0
 747.401367188 407.859375 662.3984375 492.861328125 557.69921875 492.861328125 c 0
67 -175.615234375 m 1
 67 784.513671875 l 1
 117.40625 784.513671875 l 1
 185.7265625 784.513671875 l 1
 686.56640625 784.513671875 l 1
 686.56640625 756.123046875 l 1
 185.7265625 756.123046875 l 1
 185.7265625 -175.615234375 l 1
 67 -175.615234375 l 1
EndSplineSet
Validated: 524289
EndChar

StartChar: uni304C
Encoding: 12364 12364 43
Width: 994
HStem: -175.615 21.168<459.162 885.861> 607.484 177.029<730 829.922 849.297 885.861>
VStem: 67 131.631<-119.582 784.514> 730 177.029<607.484 784.514> 885.861 21.168<-154.447 607.484>
LayerCount: 2
Fore
SplineSet
730 784.513671875 m 1xf0
 907.029296875 784.513671875 l 1
 907.029296875 756.880859375 l 1
 907.029296875 607.484375 l 1xf0
 907.029296875 -175.615234375 l 1xe8
 425.740234375 -175.615234375 l 1
 829.921875 607.484375 l 1
 730 607.484375 l 1
 730 784.513671875 l 1xf0
849.296875 607.484375 m 1
 459.162109375 -154.447265625 l 1
 885.861328125 -154.447265625 l 1
 885.861328125 607.484375 l 1xe8
 849.296875 607.484375 l 1
67 784.513671875 m 1
 198.630859375 784.513671875 l 1
 198.630859375 -119.58203125 l 1
 620.216796875 784.513671875 l 1
 713.1328125 784.513671875 l 1
 265.41796875 -175.615234375 l 1
 198.630859375 -175.615234375 l 1
 172.501953125 -175.615234375 l 1
 67 -175.615234375 l 1
 67 784.513671875 l 1
EndSplineSet
Validated: 524289
EndChar

StartChar: uni304E
Encoding: 12366 12366 44
Width: 1106
HStem: -175.615 177.028<459 636.028> 479.957 29.6797<811.453 924.595> 752.25 29.6816<811.452 924.595>
VStem: 67 131.631<-119.582 784.514> 459 177.028<-175.615 1.41309> 717.037 29.6797<574.373 687.515> 807.371 121.307<-175.615 438.661> 989.33 29.6816<574.373 687.515>
LayerCount: 2
Fore
SplineSet
807.37109375 -175.615234375 m 1
 807.37109375 438.661132812 l 1
 928.677734375 438.661132812 l 1
 928.677734375 -175.615234375 l 1
 807.37109375 -175.615234375 l 1
868.0234375 781.931640625 m 0
 951.35546875 781.931640625 1019.01171875 714.276367188 1019.01171875 630.943359375 c 0
 1019.01074219 547.612304688 951.35546875 479.95703125 868.0234375 479.95703125 c 0
 784.692382812 479.958007812 717.038085938 547.612304688 717.037109375 630.943359375 c 0
 717.037109375 714.275390625 784.69140625 781.930664062 868.0234375 781.931640625 c 0
868.0234375 752.25 m 0
 801.072265625 752.25 746.716796875 697.89453125 746.716796875 630.943359375 c 0
 746.716796875 563.993164062 801.072265625 509.63671875 868.0234375 509.63671875 c 0
 934.974609375 509.63671875 989.330078125 563.993164062 989.330078125 630.943359375 c 0
 989.330078125 697.89453125 934.974609375 752.25 868.0234375 752.25 c 0
459 -175.615234375 m 1
 459 1.4130859375 l 1
 636.028320312 1.4130859375 l 1
 636.028320312 -175.615234375 l 1
 459 -175.615234375 l 1
67 784.513671875 m 1
 198.630859375 784.513671875 l 1
 198.630859375 -119.58203125 l 1
 620.216796875 784.513671875 l 1
 713.1328125 784.513671875 l 1
 265.41796875 -175.615234375 l 1
 198.630859375 -175.615234375 l 1
 172.501953125 -175.615234375 l 1
 67 -175.615234375 l 1
 67 784.513671875 l 1
EndSplineSet
Validated: 524289
EndChar

StartChar: uni3050
Encoding: 12368 12368 45
Width: 1203
HStem: -67.916 37.4238<697.031 1089.34> 410.625 177.029<939.412 1089.34> 550.23 37.4238<697.031 939.412>
VStem: 67 131.631<-119.582 784.514> 669.93 27.1016<-30.4922 550.23> 939.412 177.029<410.625 550.23> 1089.34 27.0996<-30.4922 410.625>
LayerCount: 2
Fore
SplineSet
669.9296875 587.654296875 m 1xba
 939.412109375 587.654296875 l 1xdc
 1116.44140625 587.654296875 l 1xba
 1116.44140625 410.625 l 1xdc
 1116.44140625 -67.916015625 l 1
 669.9296875 -67.916015625 l 1
 669.9296875 587.654296875 l 1xba
697.03125 550.23046875 m 1xbc
 697.03125 -30.4921875 l 1
 1089.34179688 -30.4921875 l 1
 1089.34179688 410.625 l 1xda
 939.412109375 410.625 l 1xdc
 939.412109375 550.23046875 l 1
 697.03125 550.23046875 l 1xbc
67 784.513671875 m 1
 198.630859375 784.513671875 l 1
 198.630859375 -119.58203125 l 1
 620.216796875 784.513671875 l 1
 713.1328125 784.513671875 l 1
 265.41796875 -175.615234375 l 1
 198.630859375 -175.615234375 l 1
 172.501953125 -175.615234375 l 1
 67 -175.615234375 l 1
 67 784.513671875 l 1
EndSplineSet
Validated: 524289
EndChar

StartChar: uni3052
Encoding: 12370 12370 46
Width: 1290
HStem: 607.486 177.027<1026.76 1182.62> 763.346 21.168<755.92 1026.76>
VStem: 67 131.631<-119.582 784.514> 1026.76 177.027<607.486 763.346> 1182.62 21.168<-69.9961 607.486>
LayerCount: 2
Fore
SplineSet
722.49609375 784.513671875 m 1x68
 1026.7578125 784.513671875 l 1xb0
 1203.78515625 784.513671875 l 1x68
 1203.78515625 607.486328125 l 1xb0
 1203.78515625 -147.982421875 l 1
 722.49609375 784.513671875 l 1x68
755.919921875 763.345703125 m 1x70
 1182.6171875 -69.99609375 l 1
 1182.6171875 607.486328125 l 1xa8
 1026.7578125 607.486328125 l 1xb0
 1026.7578125 763.345703125 l 1
 755.919921875 763.345703125 l 1x70
67 784.513671875 m 1x60
 198.630859375 784.513671875 l 1
 198.630859375 -119.58203125 l 1
 620.216796875 784.513671875 l 1
 713.1328125 784.513671875 l 1
 265.41796875 -175.615234375 l 1
 198.630859375 -175.615234375 l 1
 172.501953125 -175.615234375 l 1
 67 -175.615234375 l 1
 67 784.513671875 l 1x60
EndSplineSet
Validated: 524289
EndChar

StartChar: uni3054
Encoding: 12372 12372 47
Width: 1053
HStem: -175.615 177.028<392.677 569.706> -16.0957 33.5527<666.315 821.084> 396.861 33.5527<666.316 821.084>
VStem: 67 131.631<-119.582 784.514> 392.677 177.029<-175.615 1.41309> 520.445 33.5527<129.776 284.544> 933.402 33.5527<129.776 284.544>
LayerCount: 2
Fore
SplineSet
743.69921875 430.4140625 m 0x76
 866.916992188 430.4140625 966.954101562 330.377929688 966.955078125 207.16015625 c 0
 966.955078125 83.9423828125 866.916992188 -16.095703125 743.69921875 -16.095703125 c 0
 620.481445312 -16.0947265625 520.4453125 83.9423828125 520.4453125 207.16015625 c 0
 520.446289062 330.376953125 620.482421875 430.413085938 743.69921875 430.4140625 c 0x76
743.69921875 396.861328125 m 0
 639.000976562 396.860351562 553.999023438 311.858398438 553.998046875 207.16015625 c 0
 553.998046875 102.4609375 639 17.4580078125 743.69921875 17.45703125 c 0
 848.399414062 17.45703125 933.40234375 102.459960938 933.40234375 207.16015625 c 0
 933.401367188 311.859375 848.3984375 396.861328125 743.69921875 396.861328125 c 0
392.676757812 -175.615234375 m 1xba
 392.676757812 1.4130859375 l 1
 569.706054688 1.4130859375 l 1
 569.706054688 -175.615234375 l 1
 392.676757812 -175.615234375 l 1xba
67 784.513671875 m 1
 198.630859375 784.513671875 l 1
 198.630859375 -119.58203125 l 1
 620.216796875 784.513671875 l 1
 713.1328125 784.513671875 l 1
 265.41796875 -175.615234375 l 1
 198.630859375 -175.615234375 l 1
 172.501953125 -175.615234375 l 1
 67 -175.615234375 l 1
 67 784.513671875 l 1
EndSplineSet
Validated: 524289
EndChar

StartChar: uni3056
Encoding: 12374 12374 48
Width: 1194
HStem: -175.615 28.5439<79.3496 499.07> -175.615 21.168<659.92 1086.62> 607.486 177.027<930.758 1030.68 1050.05 1086.62> 755.97 28.5439<165.41 590.615>
VStem: 930.758 177.027<607.486 784.514> 1086.62 21.168<-154.447 607.486>
LayerCount: 2
Fore
SplineSet
930.7578125 784.513671875 m 1x68
 1107.78515625 784.513671875 l 1x18
 1107.78515625 756.880859375 l 1
 1107.78515625 607.486328125 l 1x28
 1107.78515625 -175.615234375 l 1x64
 626.49609375 -175.615234375 l 1
 1030.67773438 607.486328125 l 1
 930.7578125 607.486328125 l 1
 930.7578125 784.513671875 l 1x68
1050.0546875 607.486328125 m 1x64
 659.919921875 -154.447265625 l 1
 1086.6171875 -154.447265625 l 1
 1086.6171875 607.486328125 l 1
 1050.0546875 607.486328125 l 1x64
67 784.513671875 m 1x90
 131.19921875 784.513671875 l 1
 152.171875 784.513671875 l 1
 590.615234375 784.513671875 l 1
 590.615234375 755.969726562 l 1
 165.41015625 755.969726562 l 1
 597.48046875 -175.615234375 l 1
 538.767578125 -175.615234375 l 1
 512.30859375 -175.615234375 l 1x50
 79.349609375 -175.615234375 l 1
 79.349609375 -147.071289062 l 1
 499.0703125 -147.071289062 l 1
 67 784.513671875 l 1x90
EndSplineSet
Validated: 524289
EndChar

StartChar: uni3058
Encoding: 12376 12376 49
Width: 976
HStem: -175.615 28.5439<79.3496 499.07> 435.445 177.028<376.15 553.18> 479.957 29.6797<681.453 794.595> 755.97 28.5439<165.41 590.615 690.222 785.825>
VStem: 376.15 177.029<435.445 612.474> 587.037 29.6797<574.373 687.515> 677.371 121.307<-175.615 438.661> 859.33 29.6816<574.373 687.515>
LayerCount: 2
Fore
SplineSet
677.37109375 -175.615234375 m 1x9f
 677.37109375 438.661132812 l 1
 798.677734375 438.661132812 l 1
 798.677734375 -175.615234375 l 1
 677.37109375 -175.615234375 l 1x9f
738.0234375 781.931640625 m 0
 821.35546875 781.931640625 889.01171875 714.276367188 889.01171875 630.943359375 c 0
 889.010742188 547.612304688 821.35546875 479.95703125 738.0234375 479.95703125 c 0xbf
 654.692382812 479.958007812 587.038085938 547.612304688 587.037109375 630.943359375 c 0
 587.037109375 714.275390625 654.69140625 781.930664062 738.0234375 781.931640625 c 0
738.0234375 752.25 m 0
 671.072265625 752.25 616.716796875 697.89453125 616.716796875 630.943359375 c 0
 616.716796875 563.993164062 671.072265625 509.63671875 738.0234375 509.63671875 c 0
 804.974609375 509.63671875 859.330078125 563.993164062 859.330078125 630.943359375 c 0
 859.330078125 697.89453125 804.974609375 752.25 738.0234375 752.25 c 0
376.150390625 435.4453125 m 1xdf
 376.150390625 612.473632812 l 1
 553.1796875 612.473632812 l 1
 553.1796875 435.4453125 l 1
 376.150390625 435.4453125 l 1xdf
67 784.513671875 m 1
 131.19921875 784.513671875 l 1
 152.171875 784.513671875 l 1
 590.615234375 784.513671875 l 1
 590.615234375 755.969726562 l 1
 165.41015625 755.969726562 l 1
 597.48046875 -175.615234375 l 1
 538.767578125 -175.615234375 l 1
 512.30859375 -175.615234375 l 1
 79.349609375 -175.615234375 l 1
 79.349609375 -147.071289062 l 1
 499.0703125 -147.071289062 l 1
 67 784.513671875 l 1
EndSplineSet
Validated: 524289
EndChar

StartChar: uni305A
Encoding: 12378 12378 50
Width: 1077
HStem: -175.615 28.5439<79.3496 499.07> 46.084 37.4238<571.031 963.342> 524.625 177.029<813.412 963.342> 664.23 37.4238<571.031 813.412> 755.97 28.5439<165.41 590.615>
VStem: 543.93 27.1016<83.5078 664.23> 813.412 177.029<524.625 664.23> 963.342 27.0996<83.5078 524.625>
LayerCount: 2
Fore
SplineSet
543.9296875 701.654296875 m 1xdd
 813.412109375 701.654296875 l 1xee
 990.44140625 701.654296875 l 1xdd
 990.44140625 524.625 l 1xee
 990.44140625 46.083984375 l 1
 543.9296875 46.083984375 l 1
 543.9296875 701.654296875 l 1xdd
571.03125 664.23046875 m 1xde
 571.03125 83.5078125 l 1
 963.341796875 83.5078125 l 1
 963.341796875 524.625 l 1xed
 813.412109375 524.625 l 1xee
 813.412109375 664.23046875 l 1
 571.03125 664.23046875 l 1xde
67 784.513671875 m 1
 131.19921875 784.513671875 l 1
 152.171875 784.513671875 l 1
 590.615234375 784.513671875 l 1
 590.615234375 755.969726562 l 1
 165.41015625 755.969726562 l 1
 597.48046875 -175.615234375 l 1
 538.767578125 -175.615234375 l 1
 512.30859375 -175.615234375 l 1
 79.349609375 -175.615234375 l 1
 79.349609375 -147.071289062 l 1
 499.0703125 -147.071289062 l 1
 67 784.513671875 l 1
EndSplineSet
Validated: 524289
EndChar

StartChar: uni305C
Encoding: 12380 12380 51
Width: 1196
HStem: -175.615 28.5439<79.3496 499.07> 607.486 177.027<932.756 1088.62> 755.97 28.5439<165.41 590.615> 763.346 21.168<661.92 932.756>
VStem: 932.756 177.029<607.486 763.346> 1088.62 21.168<-69.9961 607.486>
LayerCount: 2
Fore
SplineSet
628.49609375 784.513671875 m 1x94
 932.755859375 784.513671875 l 1xc8
 1109.78515625 784.513671875 l 1x94
 1109.78515625 607.486328125 l 1xc8
 1109.78515625 -147.982421875 l 1
 628.49609375 784.513671875 l 1x94
661.919921875 763.345703125 m 1x98
 1088.6171875 -69.99609375 l 1
 1088.6171875 607.486328125 l 1xc4
 932.755859375 607.486328125 l 1xc8
 932.755859375 763.345703125 l 1
 661.919921875 763.345703125 l 1x98
67 784.513671875 m 1x90
 131.19921875 784.513671875 l 1
 152.171875 784.513671875 l 1x90
 590.615234375 784.513671875 l 1
 590.615234375 755.969726562 l 1
 165.41015625 755.969726562 l 1xa0
 597.48046875 -175.615234375 l 1
 538.767578125 -175.615234375 l 1
 512.30859375 -175.615234375 l 1
 79.349609375 -175.615234375 l 1
 79.349609375 -147.071289062 l 1
 499.0703125 -147.071289062 l 1
 67 784.513671875 l 1x90
EndSplineSet
Validated: 524289
EndChar

StartChar: uni305E
Encoding: 12382 12382 52
Width: 999
HStem: -175.615 28.5439<79.3496 499.07> 161.904 33.5527<612.315 767.084> 541.747 177.028<299.274 476.303> 574.861 33.5527<612.316 767.084> 755.97 28.5439<165.41 590.615>
VStem: 299.274 177.028<541.747 718.775> 466.445 33.5527<307.776 462.544> 879.402 33.5527<307.776 462.544>
LayerCount: 2
Fore
SplineSet
689.69921875 608.4140625 m 0xdb
 812.916992188 608.4140625 912.954101562 508.377929688 912.955078125 385.16015625 c 0
 912.955078125 261.942382812 812.916992188 161.904296875 689.69921875 161.904296875 c 0
 566.481445312 161.905273438 466.4453125 261.942382812 466.4453125 385.16015625 c 0
 466.446289062 508.376953125 566.482421875 608.413085938 689.69921875 608.4140625 c 0xdb
689.69921875 574.861328125 m 0
 585.000976562 574.860351562 499.999023438 489.858398438 499.998046875 385.16015625 c 0
 499.998046875 280.4609375 585 195.458007812 689.69921875 195.45703125 c 0
 794.399414062 195.45703125 879.40234375 280.459960938 879.40234375 385.16015625 c 0
 879.401367188 489.859375 794.3984375 574.861328125 689.69921875 574.861328125 c 0
299.274414062 541.747070312 m 1xed
 299.274414062 718.775390625 l 1
 476.302734375 718.775390625 l 1
 476.302734375 541.747070312 l 1
 299.274414062 541.747070312 l 1xed
67 784.513671875 m 1
 131.19921875 784.513671875 l 1
 152.171875 784.513671875 l 1
 590.615234375 784.513671875 l 1
 590.615234375 755.969726562 l 1
 165.41015625 755.969726562 l 1
 597.48046875 -175.615234375 l 1
 538.767578125 -175.615234375 l 1
 512.30859375 -175.615234375 l 1
 79.349609375 -175.615234375 l 1
 79.349609375 -147.071289062 l 1
 499.0703125 -147.071289062 l 1
 67 784.513671875 l 1
EndSplineSet
Validated: 524289
EndChar

StartChar: uni3060
Encoding: 12384 12384 53
Width: 980
HStem: -175.615 21.168<445.92 872.617> 245.087 116.145<269.423 537.846> 607.486 177.027<716.756 816.678 836.055 872.617>
VStem: 67 118.726<-175.615 784.514> 716.756 177.029<607.486 784.514> 872.617 21.168<-154.447 607.486>
LayerCount: 2
Fore
SplineSet
716.755859375 784.513671875 m 1xf8
 893.78515625 784.513671875 l 1
 893.78515625 756.880859375 l 1
 893.78515625 607.486328125 l 1xf8
 893.78515625 -175.615234375 l 1xf4
 412.49609375 -175.615234375 l 1
 816.677734375 607.486328125 l 1
 716.755859375 607.486328125 l 1
 716.755859375 784.513671875 l 1xf8
836.0546875 607.486328125 m 1
 445.919921875 -154.447265625 l 1
 872.6171875 -154.447265625 l 1
 872.6171875 607.486328125 l 1xf4
 836.0546875 607.486328125 l 1
67 -175.615234375 m 1
 67 784.513671875 l 1
 185.725585938 784.513671875 l 1
 185.725585938 -175.615234375 l 1
 67 -175.615234375 l 1
269.422851562 245.086914062 m 1
 269.422851562 361.231445312 l 1
 537.845703125 361.231445312 l 1
 537.845703125 245.086914062 l 1
 269.422851562 245.086914062 l 1
EndSplineSet
Validated: 524289
EndChar

StartChar: uni3062
Encoding: 12386 12386 54
Width: 930
HStem: 245.087 116.145<273.423 541.846> 479.957 29.6797<635.453 748.595> 503.371 177.028<273.423 450.451> 752.25 29.6816<635.452 748.595>
VStem: 67 118.726<-175.615 784.514> 273.423 177.028<503.371 680.399> 541.037 29.6797<574.373 687.515> 631.371 121.307<-175.615 438.661> 813.33 29.6816<574.373 687.515>
LayerCount: 2
Fore
SplineSet
631.37109375 -175.615234375 m 1x9f80
 631.37109375 438.661132812 l 1
 752.677734375 438.661132812 l 1
 752.677734375 -175.615234375 l 1
 631.37109375 -175.615234375 l 1x9f80
692.0234375 781.931640625 m 0
 775.35546875 781.931640625 843.01171875 714.276367188 843.01171875 630.943359375 c 0
 843.010742188 547.612304688 775.35546875 479.95703125 692.0234375 479.95703125 c 0xdf80
 608.692382812 479.958007812 541.038085938 547.612304688 541.037109375 630.943359375 c 0
 541.037109375 714.275390625 608.69140625 781.930664062 692.0234375 781.931640625 c 0
692.0234375 752.25 m 0
 625.072265625 752.25 570.716796875 697.89453125 570.716796875 630.943359375 c 0
 570.716796875 563.993164062 625.072265625 509.63671875 692.0234375 509.63671875 c 0
 758.974609375 509.63671875 813.330078125 563.993164062 813.330078125 630.943359375 c 0
 813.330078125 697.89453125 758.974609375 752.25 692.0234375 752.25 c 0
273.422851562 503.37109375 m 1xbf80
 273.422851562 680.399414062 l 1
 450.451171875 680.399414062 l 1
 450.451171875 503.37109375 l 1
 273.422851562 503.37109375 l 1xbf80
67 -175.615234375 m 1
 67 784.513671875 l 1
 185.725585938 784.513671875 l 1
 185.725585938 -175.615234375 l 1
 67 -175.615234375 l 1
273.422851562 245.086914062 m 1
 273.422851562 361.231445312 l 1
 541.845703125 361.231445312 l 1
 541.845703125 245.086914062 l 1
 273.422851562 245.086914062 l 1
EndSplineSet
Validated: 524289
EndChar

StartChar: uni3065
Encoding: 12389 12389 55
Width: 1113
HStem: -25.916 37.4238<607.031 999.342> 245.087 116.145<249.423 517.846> 452.625 177.029<849.412 999.342> 592.23 37.4238<607.031 849.412>
VStem: 67 118.726<-175.615 784.514> 579.93 27.1016<11.5078 592.23> 849.412 177.029<452.625 592.23> 999.342 27.0996<11.5078 452.625>
LayerCount: 2
Fore
SplineSet
579.9296875 629.654296875 m 1xdd
 849.412109375 629.654296875 l 1xee
 1026.44140625 629.654296875 l 1xdd
 1026.44140625 452.625 l 1xee
 1026.44140625 -25.916015625 l 1
 579.9296875 -25.916015625 l 1
 579.9296875 629.654296875 l 1xdd
607.03125 592.23046875 m 1xde
 607.03125 11.5078125 l 1
 999.341796875 11.5078125 l 1
 999.341796875 452.625 l 1xed
 849.412109375 452.625 l 1xee
 849.412109375 592.23046875 l 1
 607.03125 592.23046875 l 1xde
67 -175.615234375 m 1
 67 784.513671875 l 1
 185.725585938 784.513671875 l 1
 185.725585938 -175.615234375 l 1
 67 -175.615234375 l 1
249.422851562 245.086914062 m 1
 249.422851562 361.231445312 l 1
 517.845703125 361.231445312 l 1
 517.845703125 245.086914062 l 1
 249.422851562 245.086914062 l 1
EndSplineSet
Validated: 524289
EndChar

StartChar: uni3067
Encoding: 12391 12391 56
Width: 980
HStem: 245.087 116.145<275.423 543.846> 607.486 177.027<716.756 872.617> 763.346 21.168<445.92 716.756>
VStem: 67 118.726<-175.615 784.514> 716.756 177.029<607.486 763.346> 872.617 21.168<-69.9961 607.486>
LayerCount: 2
Fore
SplineSet
412.49609375 784.513671875 m 1xb4
 716.755859375 784.513671875 l 1xd8
 893.78515625 784.513671875 l 1xb4
 893.78515625 607.486328125 l 1xd8
 893.78515625 -147.982421875 l 1
 412.49609375 784.513671875 l 1xb4
445.919921875 763.345703125 m 1xb8
 872.6171875 -69.99609375 l 1
 872.6171875 607.486328125 l 1xd4
 716.755859375 607.486328125 l 1xd8
 716.755859375 763.345703125 l 1
 445.919921875 763.345703125 l 1xb8
67 -175.615234375 m 1
 67 784.513671875 l 1
 185.725585938 784.513671875 l 1xb0
 185.725585938 -175.615234375 l 1
 67 -175.615234375 l 1
275.422851562 245.086914062 m 1
 275.422851562 361.231445312 l 1
 543.845703125 361.231445312 l 1
 543.845703125 245.086914062 l 1
 275.422851562 245.086914062 l 1
EndSplineSet
Validated: 524289
EndChar

StartChar: uni3069
Encoding: 12393 12393 57
Width: 1119
HStem: 79.9043 33.5527<732.315 887.084> 245.087 116.145<257.423 525.846> 483.772 177.028<257.423 434.451> 492.861 33.5527<732.316 887.084>
VStem: 67 118.726<-175.615 784.514> 257.423 177.028<483.772 660.801> 586.445 33.5527<225.776 380.544> 999.402 33.5527<225.776 380.544>
LayerCount: 2
Fore
SplineSet
809.69921875 526.4140625 m 0xdf
 932.916992188 526.4140625 1032.95410156 426.377929688 1032.95507812 303.16015625 c 0
 1032.95507812 179.942382812 932.916992188 79.904296875 809.69921875 79.904296875 c 0
 686.481445312 79.9052734375 586.4453125 179.942382812 586.4453125 303.16015625 c 0
 586.446289062 426.376953125 686.482421875 526.413085938 809.69921875 526.4140625 c 0xdf
809.69921875 492.861328125 m 0
 705.000976562 492.860351562 619.999023438 407.858398438 619.998046875 303.16015625 c 0
 619.998046875 198.4609375 705 113.458007812 809.69921875 113.45703125 c 0
 914.399414062 113.45703125 999.40234375 198.459960938 999.40234375 303.16015625 c 0
 999.401367188 407.859375 914.3984375 492.861328125 809.69921875 492.861328125 c 0
67 -175.615234375 m 1
 67 784.513671875 l 1
 185.725585938 784.513671875 l 1
 185.725585938 -175.615234375 l 1
 67 -175.615234375 l 1
257.422851562 245.086914062 m 1
 257.422851562 361.231445312 l 1
 525.845703125 361.231445312 l 1
 525.845703125 245.086914062 l 1
 257.422851562 245.086914062 l 1
257.422851562 483.772460938 m 1xef
 257.422851562 660.80078125 l 1
 434.451171875 660.80078125 l 1
 434.451171875 483.772460938 l 1
 257.422851562 483.772460938 l 1xef
EndSplineSet
Validated: 524289
EndChar

StartChar: uni3070
Encoding: 12400 12400 58
Width: 1286
HStem: -175.615 28.3906<185.727 686.566> -175.615 21.168<751.92 1178.62> 607.484 177.029<1022.76 1122.68 1142.05 1178.62>
VStem: 67 118.727<-147.225 784.514> 1022.76 177.029<607.484 784.514> 1178.62 21.168<-154.447 607.484>
LayerCount: 2
Fore
SplineSet
1022.75585938 784.513671875 m 1x78
 1199.78515625 784.513671875 l 1
 1199.78515625 756.880859375 l 1
 1199.78515625 607.484375 l 1x78
 1199.78515625 -175.615234375 l 1x74
 718.49609375 -175.615234375 l 1
 1122.67773438 607.484375 l 1
 1022.75585938 607.484375 l 1
 1022.75585938 784.513671875 l 1x78
1142.05273438 607.484375 m 1
 751.919921875 -154.447265625 l 1
 1178.6171875 -154.447265625 l 1
 1178.6171875 607.484375 l 1x74
 1142.05273438 607.484375 l 1
67 784.513671875 m 1
 185.7265625 784.513671875 l 1
 185.7265625 -147.224609375 l 1
 686.56640625 -147.224609375 l 1
 686.56640625 -175.615234375 l 1
 185.7265625 -175.615234375 l 1xb0
 117.40625 -175.615234375 l 1
 67 -175.615234375 l 1
 67 784.513671875 l 1
EndSplineSet
Validated: 524289
EndChar

StartChar: uni3073
Encoding: 12403 12403 59
Width: 1026
HStem: -175.615 28.3906<185.727 686.566> 302.669 177.028<370.724 547.753> 479.957 29.6797<731.453 844.595> 752.25 29.6816<731.452 844.595>
VStem: 67 118.727<-147.225 784.514> 370.724 177.029<302.669 479.697> 637.037 29.6797<574.373 687.515> 727.371 121.307<-175.615 438.661> 909.33 29.6816<574.373 687.515>
LayerCount: 2
Fore
SplineSet
727.37109375 -175.615234375 m 1
 727.37109375 438.661132812 l 1
 848.677734375 438.661132812 l 1
 848.677734375 -175.615234375 l 1
 727.37109375 -175.615234375 l 1
788.0234375 781.931640625 m 0
 871.35546875 781.931640625 939.01171875 714.276367188 939.01171875 630.943359375 c 0
 939.010742188 547.612304688 871.35546875 479.95703125 788.0234375 479.95703125 c 0
 704.692382812 479.958007812 637.038085938 547.612304688 637.037109375 630.943359375 c 0
 637.037109375 714.275390625 704.69140625 781.930664062 788.0234375 781.931640625 c 0
788.0234375 752.25 m 0
 721.072265625 752.25 666.716796875 697.89453125 666.716796875 630.943359375 c 0
 666.716796875 563.993164062 721.072265625 509.63671875 788.0234375 509.63671875 c 0
 854.974609375 509.63671875 909.330078125 563.993164062 909.330078125 630.943359375 c 0
 909.330078125 697.89453125 854.974609375 752.25 788.0234375 752.25 c 0
370.723632812 302.668945312 m 1
 370.723632812 479.697265625 l 1
 547.752929688 479.697265625 l 1
 547.752929688 302.668945312 l 1
 370.723632812 302.668945312 l 1
67 784.513671875 m 1
 185.7265625 784.513671875 l 1
 185.7265625 -147.224609375 l 1
 686.56640625 -147.224609375 l 1
 686.56640625 -175.615234375 l 1
 185.7265625 -175.615234375 l 1
 117.40625 -175.615234375 l 1
 67 -175.615234375 l 1
 67 784.513671875 l 1
EndSplineSet
Validated: 524289
EndChar

StartChar: uni3076
Encoding: 12406 12406 60
Width: 915
HStem: -175.615 28.3906<185.727 686.566> 128.943 37.4238<409.031 801.342> 607.486 177.027<651.412 801.342> 747.09 37.4238<409.031 651.412>
VStem: 67 118.727<-147.225 784.514> 381.93 27.1016<166.367 747.09> 651.412 177.029<607.486 747.09> 801.342 27.0996<166.367 607.486>
LayerCount: 2
Fore
SplineSet
381.9296875 784.513671875 m 1xdd
 651.412109375 784.513671875 l 1xee
 828.44140625 784.513671875 l 1xdd
 828.44140625 607.486328125 l 1xee
 828.44140625 128.943359375 l 1
 381.9296875 128.943359375 l 1
 381.9296875 784.513671875 l 1xdd
409.03125 747.08984375 m 1xde
 409.03125 166.3671875 l 1
 801.341796875 166.3671875 l 1
 801.341796875 607.486328125 l 1xed
 651.412109375 607.486328125 l 1xee
 651.412109375 747.08984375 l 1
 409.03125 747.08984375 l 1xde
67 784.513671875 m 1xdc
 185.7265625 784.513671875 l 1
 185.7265625 -147.224609375 l 1
 686.56640625 -147.224609375 l 1
 686.56640625 -175.615234375 l 1
 185.7265625 -175.615234375 l 1
 117.40625 -175.615234375 l 1
 67 -175.615234375 l 1
 67 784.513671875 l 1xdc
EndSplineSet
Validated: 524289
EndChar

StartChar: uni3079
Encoding: 12409 12409 61
Width: 852
HStem: -175.615 28.3906<185.727 686.566> 607.486 177.027<588.756 744.617> 763.346 21.168<317.92 588.756>
VStem: 67 118.727<-147.225 784.514> 588.756 177.029<607.486 763.346> 744.617 21.168<-69.9961 607.486>
LayerCount: 2
Fore
SplineSet
284.49609375 784.513671875 m 1xb4
 588.755859375 784.513671875 l 1xd8
 765.78515625 784.513671875 l 1xb4
 765.78515625 607.486328125 l 1xd8
 765.78515625 -147.982421875 l 1
 284.49609375 784.513671875 l 1xb4
317.919921875 763.345703125 m 1xb8
 744.6171875 -69.99609375 l 1
 744.6171875 607.486328125 l 1xd4
 588.755859375 607.486328125 l 1xd8
 588.755859375 763.345703125 l 1
 317.919921875 763.345703125 l 1xb8
67 784.513671875 m 1xb0
 185.7265625 784.513671875 l 1
 185.7265625 -147.224609375 l 1
 686.56640625 -147.224609375 l 1
 686.56640625 -175.615234375 l 1
 185.7265625 -175.615234375 l 1
 117.40625 -175.615234375 l 1
 67 -175.615234375 l 1
 67 784.513671875 l 1xb0
EndSplineSet
Validated: 524289
EndChar

StartChar: uni307C
Encoding: 12412 12412 62
Width: 913
HStem: -175.615 28.3906<185.727 686.566> 79.9043 33.5527<526.315 681.084> 492.861 33.5527<526.316 681.084> 607.485 177.028<293.39 470.418>
VStem: 67 118.727<-147.225 784.514> 293.39 177.028<607.485 784.514> 380.445 33.5527<225.776 380.544> 793.402 33.5527<225.776 380.544>
LayerCount: 2
Fore
SplineSet
603.69921875 526.4140625 m 0xfb
 726.916992188 526.4140625 826.954101562 426.377929688 826.955078125 303.16015625 c 0
 826.955078125 179.942382812 726.916992188 79.904296875 603.69921875 79.904296875 c 0
 480.481445312 79.9052734375 380.4453125 179.942382812 380.4453125 303.16015625 c 0
 380.446289062 426.376953125 480.482421875 526.413085938 603.69921875 526.4140625 c 0xfb
603.69921875 492.861328125 m 0
 499.000976562 492.860351562 413.999023438 407.858398438 413.998046875 303.16015625 c 0
 413.998046875 198.4609375 499 113.458007812 603.69921875 113.45703125 c 0
 708.399414062 113.45703125 793.40234375 198.459960938 793.40234375 303.16015625 c 0
 793.401367188 407.859375 708.3984375 492.861328125 603.69921875 492.861328125 c 0
293.389648438 607.485351562 m 1xfd
 293.389648438 784.513671875 l 1
 470.41796875 784.513671875 l 1
 470.41796875 607.485351562 l 1
 293.389648438 607.485351562 l 1xfd
67 784.513671875 m 1
 185.7265625 784.513671875 l 1
 185.7265625 -147.224609375 l 1
 686.56640625 -147.224609375 l 1
 686.56640625 -175.615234375 l 1
 185.7265625 -175.615234375 l 1
 117.40625 -175.615234375 l 1
 67 -175.615234375 l 1
 67 784.513671875 l 1
EndSplineSet
Validated: 524289
EndChar

StartChar: uni3093
Encoding: 12435 12435 63
Width: 592
HStem: -175.615 28.2891<359.561 445.284> 2.32617 28.2891<359.561 445.284>
VStem: 67 118.726<-175.615 784.514> 299.308 28.2891<-115.361 -29.6383> 477.249 28.2871<-115.361 -29.6385>
LayerCount: 2
Fore
SplineSet
402.422851562 30.615234375 m 0
 459.33203125 30.615234375 505.536132812 -15.58984375 505.536132812 -72.5 c 0
 505.536132812 -129.41015625 459.33203125 -175.614257812 402.422851562 -175.615234375 c 0
 345.51171875 -175.615234375 299.307617188 -129.41015625 299.307617188 -72.5 c 0
 299.307617188 -15.5888671875 345.51171875 30.615234375 402.422851562 30.615234375 c 0
402.422851562 2.326171875 m 0
 361.125 2.326171875 327.596679688 -31.2021484375 327.596679688 -72.5 c 0
 327.596679688 -113.797851562 361.125 -147.326171875 402.422851562 -147.326171875 c 0
 443.720703125 -147.326171875 477.249023438 -113.797851562 477.249023438 -72.5 c 0
 477.249023438 -31.2021484375 443.720703125 2.326171875 402.422851562 2.326171875 c 0
67 -175.615234375 m 1
 67 784.513671875 l 1
 185.725585938 784.513671875 l 1
 185.725585938 -175.615234375 l 1
 67 -175.615234375 l 1
EndSplineSet
Validated: 524289
EndChar
